<svg xmlns="http://www.w3.org/2000/svg" xmlns:xlink="http://www.w3.org/1999/xlink"><symbol id="arrow-small" viewBox="0 0 12 12"><path opacity="0.6" d="M11.4545 3.81836L5.99996 8.72745L0.54541 3.81836" stroke="currentColor"/></symbol><symbol id="arrow" viewBox="0 0 11 12"><path d="M0 5.6875H10M10 5.6875L5.03311 11M10 5.6875L5.03311 1" stroke="currentColor"/></symbol><symbol id="check" viewBox="0 0 10 10"><g fill="none"><path d="M1 4.5L3.94737 8L9 2" stroke="#316DC2" stroke-linecap="round" stroke-linejoin="round"/></g></symbol><symbol id="icon-close" viewBox="0 0 20 20"><g fill="none"><path d="M.293 18.291a1 1 0 101.414 1.414L10 11.413l8.292 8.292a1 1 0 101.414-1.414l-8.292-8.292 8.292-8.292A1 1 0 1018.291.293L9.999 8.585 1.707.293A1 1 0 10.293 1.707L8.585 10 .293 18.291z"/></g></symbol><symbol id="logo" viewBox="0 0 52 52"><g fill="none"><rect width="52" height="52" rx="26" fill="white"/><path d="M12 39.8701V33.633H12.6763L15.5115 38.8782L18.3318 33.633H19.0181V39.8657H18.3168V35.0536L15.747 39.8701H15.2711L12.7063 35.0536V39.8701H12Z" fill="#316DC2"/><path d="M30.2848 40C29.7805 40 29.3264 39.9278 28.9223 39.7834C28.5215 39.6362 28.1892 39.4283 27.9254 39.1597C27.6649 38.8912 27.4946 38.5721 27.4145 38.2025L28.1659 38.0942C28.2861 38.4985 28.5399 38.8161 28.9273 39.0471C29.3147 39.2752 29.7772 39.3893 30.3149 39.3893C30.6689 39.3893 30.9861 39.3416 31.2666 39.2464C31.5472 39.1482 31.7676 39.0096 31.9279 38.8305C32.0882 38.6515 32.1683 38.4393 32.1683 38.1938C32.1683 38.0321 32.1349 37.895 32.0681 37.7824C32.0013 37.6669 31.9128 37.5716 31.8026 37.4965C31.6924 37.4214 31.5722 37.3593 31.442 37.3103C31.3117 37.2583 31.1848 37.2164 31.0613 37.1846L29.2329 36.7125C29.0124 36.6577 28.8087 36.5884 28.6217 36.5046C28.4347 36.418 28.2711 36.3155 28.1308 36.1971C27.9939 36.0758 27.887 35.9343 27.8102 35.7726C27.7334 35.6109 27.695 35.4261 27.695 35.2182C27.695 34.8659 27.8019 34.5613 28.0156 34.3043C28.2293 34.0473 28.5215 33.8495 28.8922 33.7109C29.2629 33.5723 29.6854 33.5045 30.1596 33.5074C30.6405 33.5074 31.0696 33.581 31.447 33.7283C31.8277 33.8755 32.1416 34.0863 32.3887 34.3606C32.6359 34.6321 32.7995 34.954 32.8796 35.3265L32.1082 35.4478C32.0581 35.1764 31.9429 34.941 31.7626 34.7418C31.5822 34.5425 31.3518 34.3895 31.0713 34.2827C30.7941 34.1729 30.4885 34.1166 30.1546 34.1137C29.8306 34.1137 29.5418 34.1614 29.288 34.2567C29.0375 34.3491 28.8388 34.4761 28.6918 34.6378C28.5449 34.7995 28.4714 34.9843 28.4714 35.1922C28.4714 35.403 28.5382 35.5719 28.6718 35.699C28.8087 35.8261 28.9757 35.9257 29.1727 35.9979C29.3731 36.0701 29.5668 36.1292 29.7538 36.1754L31.1665 36.5349C31.3134 36.5696 31.4854 36.6201 31.6824 36.6865C31.8828 36.7501 32.0765 36.8425 32.2635 36.9637C32.4538 37.0821 32.6108 37.2381 32.7344 37.4315C32.8579 37.625 32.9197 37.8704 32.9197 38.1679C32.9197 38.4566 32.8529 38.715 32.7193 38.9432C32.5891 39.1713 32.4038 39.3633 32.1633 39.5192C31.9262 39.6751 31.6473 39.7935 31.3267 39.8744C31.0095 39.9581 30.6622 40 30.2848 40Z" fill="#316DC2"/><path fill-rule="evenodd" clip-rule="evenodd" d="M23.0087 33.633L20.5241 39.8701H21.2905L21.893 38.3584H25.0974L25.7037 39.8701H26.4701L23.9855 33.633H23.0087ZM24.8576 37.7607L23.49 34.3514L22.1312 37.7607H21.6311V38.3584H21.893L22.1312 37.7607H24.8576Z" fill="#316DC2"/><path d="M21.6311 37.7607V38.3584H21.893L22.1312 37.7607H21.6311Z" fill="#316DC2"/><path fill-rule="evenodd" clip-rule="evenodd" d="M36.5386 33.633L34.0539 39.8701H34.8204L35.4229 38.3584H38.6272L39.2336 39.8701H40L37.5154 33.633H36.5386ZM38.3875 37.7607L37.0199 34.3514L35.6611 37.7607H35.161V38.3584H35.4229L35.6611 37.7607H38.3875Z" fill="#316DC2"/><path d="M35.161 37.7607V38.3584H35.4229L35.6611 37.7607H35.161Z" fill="#316DC2"/><path d="M17.8125 17.476C17.2909 17.8535 16.9851 18.6529 17.5615 19.6087C18.1378 20.5646 26.372 27.0165 26.6739 27.1957C26.9758 27.375 27.2779 27.4048 28.0461 26.7775C28.8148 26.1502 35.2362 21.2497 35.4019 21.1023C35.6656 20.8678 35.7313 20.2958 35.4019 20.0268C35.4019 20.0268 27.6225 25.941 27.3677 26.1801C27.1132 26.4191 26.7169 26.0308 26.7913 25.5231C26.866 25.0152 26.921 24.9554 27.9091 24.1788C28.8972 23.4021 34.4993 19.0889 34.7535 18.8982C35.0414 18.6821 35.0483 18.3005 34.5768 17.963C33.9214 17.4938 26.8379 12.3763 26.601 12.1971C26.3634 12.0178 26.0345 11.8549 25.5406 12.2134C25.0466 12.5718 18.7709 16.7823 17.8125 17.476Z" fill="#316DC2"/><path d="M26.6739 27.8252C26.4757 27.7075 22.8629 24.8896 20.2387 22.6955V27.2702C20.2367 30.6096 29.4981 32.3938 32.5663 28.2887V23.9163C30.6815 25.3631 28.4767 27.0556 28.0461 27.407C27.2779 28.0342 26.9758 28.0044 26.6739 27.8252Z" fill="#316DC2"/><path d="M30.593 22.8091C30.593 22.8091 31.97 23.5124 32.068 26.3426L31.4009 26.1558L30.8671 27.3076C30.6413 24.2085 29.4116 23.7591 29.4116 23.7591L30.593 22.8091Z" fill="#98B8E6"/></g></symbol><symbol id="ok" viewBox="0 0 9 16"><path d="M4.5 2.42035C5.41587 2.42035 6.1607 3.18736 6.1607 4.1305C6.1607 5.0708 5.41587 5.83781 4.5 5.83781C3.58413 5.83781 2.8393 5.0708 2.8393 4.1305C2.8393 3.18736 3.58413 2.42035 4.5 2.42035ZM4.5 8.25816C6.71243 8.25816 8.51106 6.40597 8.51106 4.1305C8.51106 1.85219 6.71243 0 4.5 0C2.28757 0 0.491701 1.85219 0.491701 4.1305C0.491701 6.40597 2.28757 8.25816 4.5 8.25816ZM6.12208 11.6273C6.93863 11.4342 7.72485 11.1018 8.45037 10.6331C8.99934 10.278 9.16486 9.53083 8.82003 8.96551C8.47244 8.39735 7.74967 8.22691 7.19795 8.58485C5.55656 9.6473 3.44344 9.6473 1.79929 8.58485C1.25033 8.22691 0.524805 8.39735 0.179975 8.96551C-0.164855 9.53083 0.000663014 10.278 0.549632 10.6331C1.27515 11.1018 2.06136 11.4342 2.87792 11.6273L0.63515 13.934C0.177216 14.4056 0.177216 15.1726 0.63515 15.6442C0.866875 15.88 1.16481 15.9993 1.4655 15.9993C1.76619 15.9993 2.06688 15.88 2.29861 15.6442L4.5 13.3772L6.70415 15.6442C7.16208 16.1186 7.90416 16.1186 8.36485 15.6442C8.82278 15.1726 8.82278 14.4056 8.36485 13.934L6.12208 11.6273Z" fill="currentColor"/></symbol><symbol id="pin" viewBox="0 0 18 24"><g fill="none"><path fill-rule="evenodd" clip-rule="evenodd" d="M4.67653 1.12413C7.40052 -0.399271 10.7488 -0.372644 13.4472 1.19387C16.1191 2.7923 17.743 5.64501 17.7279 8.71373C17.6657 11.7623 15.9244 14.628 13.7478 16.8433C12.4915 18.1277 11.0861 19.2634 9.56036 20.2272C9.40322 20.3147 9.2311 20.3732 9.05248 20.4C8.88057 20.393 8.71316 20.3441 8.56533 20.2577C6.23598 18.8095 4.19242 16.9608 2.53298 14.8008C1.14441 12.9976 0.355519 10.8192 0.273439 8.5613C0.271636 5.48669 1.95253 2.64752 4.67653 1.12413ZM6.25061 9.83374C6.70882 10.921 7.79038 11.6302 8.99029 11.6302C9.77638 11.6357 10.532 11.3326 11.0888 10.7886C11.6457 10.2445 11.9574 9.50477 11.9546 8.73406C11.9588 7.55764 11.2393 6.49478 10.1319 6.04173C9.02454 5.58868 7.74782 5.83482 6.89787 6.66522C6.04792 7.49561 5.7924 8.74647 6.25061 9.83374Z" fill="#316DC2"/><path d="M15.2346 22.8C15.2346 23.4627 12.4436 24 9.00076 24C5.55793 24 2.76696 23.4627 2.76696 22.8C2.76696 22.1373 5.55793 21.6 9.00076 21.6C12.4436 21.6 15.2346 22.1373 15.2346 22.8Z" fill="#316DC2"/></g></symbol><symbol id="reddit" viewBox="0 0 14 15"><path d="M8.36171 0C7.91277 0 7.49149 0.244007 7.22128 0.59589C6.95106 0.947774 6.80213 1.37671 6.69362 1.82877C6.52128 2.55565 6.46808 3.36216 6.45532 4.08904C5.19361 4.17894 4.05105 4.57962 3.10211 5.19863C2.717 4.85188 2.25317 4.65925 1.80849 4.66438C1.3021 4.66952 0.821252 4.90325 0.463803 5.38356C-0.219178 6.30051 -0.140455 7.80051 0.651038 8.69178C0.602102 8.96661 0.565931 9.24914 0.565931 9.53425C0.565931 12.5548 3.44679 15 7 15C10.5532 15 13.4341 12.5522 13.4341 9.53425C13.4341 9.24914 13.3979 8.96661 13.349 8.69178C14.1405 7.80051 14.2192 6.30051 13.5362 5.38356C13.1788 4.90325 12.6979 4.66952 12.1915 4.66438C11.7468 4.65925 11.283 4.85188 10.8979 5.19863C9.9532 4.58219 8.81703 4.18151 7.5617 4.08904C7.57873 3.41866 7.62341 2.7226 7.74894 2.19863C7.82766 1.86986 7.92128 1.63099 8.02128 1.5C8.12128 1.36901 8.19362 1.31507 8.36171 1.31507C8.72554 1.31507 8.77235 1.44092 8.9915 1.74658C9.10214 1.90068 9.2298 2.09332 9.43405 2.28082C9.63831 2.46832 9.94044 2.63014 10.2681 2.63014V1.31507C10.1766 1.31507 10.1596 1.3125 10.0979 1.25342C10.0362 1.19435 9.95108 1.05822 9.82554 0.883562C9.57448 0.531678 9.08724 0 8.36171 0ZM11.9021 0.123288C11.0553 0.123288 10.3702 0.950343 10.3702 1.9726C10.3702 2.99486 11.0553 3.82192 11.9021 3.82192C12.749 3.82192 13.4341 2.99486 13.4341 1.9726C13.4341 0.950343 12.749 0.123288 11.9021 0.123288ZM11.9021 0.780822C12.4468 0.780822 12.8894 1.31507 12.8894 1.9726C12.8894 2.63014 12.4468 3.16438 11.9021 3.16438C11.3575 3.16438 10.9149 2.63014 10.9149 1.9726C10.9149 1.31507 11.3575 0.780822 11.9021 0.780822ZM7 5.11644C10.0149 5.11644 12.566 7.14298 12.566 9.53425C12.566 11.9281 10.0149 13.9521 7 13.9521C3.98509 13.9521 1.43402 11.9281 1.43402 9.53425C1.43402 7.14298 3.98509 5.11644 7 5.11644ZM1.82551 5.71233C1.97658 5.7149 2.13402 5.75599 2.28509 5.83562C1.73828 6.33647 1.30423 6.91182 1.00849 7.56164C0.80423 7.05308 0.85955 6.41866 1.11061 6.08219C1.29359 5.83562 1.54679 5.70976 1.82551 5.71233ZM12.1745 5.71233C12.4532 5.70976 12.7064 5.83562 12.8894 6.08219C13.1405 6.41866 13.1958 7.05308 12.9915 7.56164C12.6958 6.91182 12.2617 6.33647 11.7149 5.83562C11.866 5.75599 12.0234 5.7149 12.1745 5.71233ZM4.82127 7.35616C4.27658 7.35616 3.83403 7.89041 3.83403 8.54795C3.83403 9.20548 4.27658 9.73973 4.82127 9.73973C5.36595 9.73973 5.80851 9.20548 5.80851 8.54795C5.80851 7.89041 5.36595 7.35616 4.82127 7.35616ZM9.17873 7.35616C8.63405 7.35616 8.19149 7.89041 8.19149 8.54795C8.19149 9.20548 8.63405 9.73973 9.17873 9.73973C9.72342 9.73973 10.166 9.20548 10.166 8.54795C10.166 7.89041 9.72342 7.35616 9.17873 7.35616ZM4.29361 11.4041C4.64042 12.2697 5.71276 13.1096 7 13.1096C8.28724 13.1096 9.37661 12.2697 9.72342 11.4041C9.09363 11.8947 8.10001 12.226 7 12.226C5.9 12.226 4.9234 11.8947 4.29361 11.4041Z" fill="currentColor"/></symbol><symbol id="star" viewBox="0 0 18 22"><path d="M9 0L12.0138 5.47476L18 5.5L15.0275 11L18 16.5L12.0138 16.5252L9 22L5.98623 16.5252L0 16.5L2.97246 11L0 5.5L5.98623 5.47476L9 0Z" fill="currentColor"/></symbol><symbol id="vk" viewBox="0 0 14 8"><path d="M13.9258 7.22488C13.9088 7.18829 13.893 7.15794 13.8783 7.13362C13.6354 6.69547 13.1712 6.15768 12.4861 5.52008L12.4716 5.50548L12.4643 5.49832L12.457 5.49098H12.4497C12.1387 5.19409 11.9418 4.99446 11.8593 4.89225C11.7084 4.69756 11.6746 4.50049 11.7571 4.30081C11.8154 4.14995 12.0342 3.83134 12.4131 3.34456C12.6125 3.08658 12.7703 2.87982 12.8869 2.72405C13.7276 1.60458 14.0921 0.889223 13.9803 0.5777L13.9369 0.504902C13.9077 0.461074 13.8324 0.42098 13.711 0.384414C13.5894 0.347925 13.434 0.341891 13.2444 0.366208L11.1452 0.380732C11.1111 0.368663 11.0626 0.369788 10.9993 0.384414C10.9361 0.39904 10.9045 0.406379 10.9045 0.406379L10.868 0.424662L10.839 0.446627C10.8147 0.461151 10.788 0.486696 10.7588 0.52321C10.7297 0.559597 10.7055 0.602299 10.6861 0.650959C10.4575 1.23987 10.1977 1.78741 9.90602 2.29354C9.7262 2.59535 9.56107 2.85691 9.41026 3.07837C9.25966 3.29976 9.1333 3.46287 9.03133 3.56743C8.92921 3.67209 8.83705 3.75593 8.75428 3.81927C8.67163 3.88264 8.60855 3.90941 8.56486 3.89961C8.52108 3.88982 8.47985 3.8801 8.44081 3.87039C8.37282 3.82656 8.31813 3.76696 8.2769 3.69152C8.23549 3.61609 8.20761 3.52115 8.19303 3.40677C8.17853 3.29232 8.16995 3.19387 8.1675 3.1111C8.16523 3.02843 8.16628 2.9115 8.17121 2.76064C8.17626 2.6097 8.17853 2.50757 8.17853 2.45402C8.17853 2.26905 8.18213 2.0683 8.18936 1.85171C8.19671 1.63513 8.20266 1.46353 8.20764 1.33711C8.21259 1.21056 8.21489 1.07668 8.21489 0.935531C8.21489 0.794383 8.20631 0.683689 8.18936 0.603347C8.17261 0.523107 8.1469 0.44522 8.11302 0.369711C8.07894 0.294279 8.02905 0.235928 7.96359 0.194504C7.898 0.153131 7.81646 0.120299 7.71941 0.0959046C7.46183 0.0375276 7.13384 0.00594826 6.73528 0.00103876C5.83147 -0.00867795 5.25072 0.0497757 4.99317 0.176323C4.89112 0.229791 4.79878 0.302845 4.71621 0.395256C4.62872 0.50237 4.61651 0.560824 4.67968 0.570438C4.97129 0.614189 5.17773 0.718848 5.29923 0.884314L5.34302 0.971994C5.37707 1.03526 5.41108 1.14725 5.44511 1.30783C5.47909 1.46842 5.50103 1.64605 5.51068 1.84064C5.53493 2.19599 5.53493 2.50018 5.51068 2.75322C5.48635 3.00637 5.46337 3.20344 5.44144 3.34459C5.41951 3.48573 5.38672 3.60011 5.34302 3.68769C5.29923 3.77529 5.2701 3.82884 5.2555 3.84827C5.24092 3.8677 5.22877 3.87995 5.21912 3.88476C5.15595 3.909 5.09026 3.92135 5.02227 3.92135C4.95418 3.92135 4.87162 3.88724 4.77445 3.81907C4.6773 3.7509 4.57648 3.65726 4.47198 3.538C4.36749 3.41871 4.24964 3.25202 4.11838 3.0379C3.98723 2.82377 3.85115 2.5707 3.71023 2.27869L3.59363 2.06691C3.52074 1.93068 3.42117 1.7323 3.29481 1.47197C3.16839 1.21154 3.05664 0.959618 2.95949 0.716265C2.92066 0.614061 2.86232 0.536251 2.78458 0.482707L2.7481 0.460742C2.72385 0.441308 2.68491 0.420673 2.6315 0.398682C2.57801 0.376717 2.5222 0.360966 2.46384 0.351275L0.466599 0.365799C0.262507 0.365799 0.124028 0.412107 0.0511125 0.504595L0.0219309 0.548345C0.00735285 0.572714 0 0.611632 0 0.665202C0 0.718746 0.014578 0.784462 0.0437596 0.862272C0.33532 1.54858 0.652386 2.21047 0.994957 2.84804C1.33753 3.48561 1.63522 3.99918 1.88784 4.38831C2.14052 4.77772 2.39807 5.14525 2.6605 5.4907C2.92293 5.83628 3.09665 6.05775 3.18164 6.15504C3.26673 6.25252 3.33357 6.32539 3.38216 6.37405L3.56442 6.54923C3.68104 6.66607 3.8523 6.80598 4.07828 6.969C4.3043 7.13211 4.55453 7.29269 4.82908 7.451C5.10369 7.60905 5.42316 7.73802 5.78766 7.83777C6.15211 7.93762 6.50683 7.97769 6.85188 7.95836H7.69016C7.86017 7.94366 7.98897 7.89012 8.07651 7.7977L8.10552 7.76111C8.12502 7.73207 8.14328 7.68693 8.16013 7.6262C8.17718 7.56537 8.18566 7.49835 8.18566 7.42545C8.18068 7.21621 8.19658 7.02763 8.23294 6.85973C8.26927 6.69189 8.31068 6.56534 8.35699 6.48012C8.40328 6.39497 8.45552 6.32312 8.51365 6.26487C8.57191 6.20649 8.61342 6.17113 8.63778 6.15895C8.66198 6.14671 8.68131 6.1384 8.69589 6.13341C8.81251 6.09449 8.94976 6.13218 9.10785 6.24666C9.26581 6.36104 9.41396 6.50226 9.55254 6.6701C9.69105 6.8381 9.85746 7.02658 10.0518 7.23582C10.2463 7.44514 10.4163 7.60074 10.562 7.70309L10.7078 7.7907C10.8051 7.84915 10.9314 7.9027 11.087 7.95136C11.2422 7.99999 11.3782 8.01216 11.495 7.98784L13.361 7.95869C13.5456 7.95869 13.6892 7.92809 13.7911 7.86736C13.8931 7.80653 13.9538 7.73951 13.9733 7.66661C13.9928 7.59363 13.9939 7.51083 13.977 7.41827C13.9597 7.32593 13.9427 7.26137 13.9258 7.22488Z" fill="currentColor"/></symbol></svg>