<svg xmlns="http://www.w3.org/2000/svg" xmlns:xlink="http://www.w3.org/1999/xlink"><symbol id="arrow-small" viewBox="0 0 12 12"><g fill="none"><path opacity="0.6" d="M11.4545 3.81836L5.99996 8.72745L0.54541 3.81836" stroke="currentColor"/></g></symbol><symbol id="arrow" viewBox="0 0 11 12"><path d="M0 5.6875H10M10 5.6875L5.03311 11M10 5.6875L5.03311 1" stroke="currentColor"/></symbol><symbol id="check" viewBox="0 0 10 10"><g fill="none"><path d="M1 4.5L3.94737 8L9 2" stroke="#316DC2" stroke-linecap="round" stroke-linejoin="round"/></g></symbol><symbol id="icon-close" viewBox="0 0 20 20"><g fill="none"><path d="M.293 18.291a1 1 0 101.414 1.414L10 11.413l8.292 8.292a1 1 0 101.414-1.414l-8.292-8.292 8.292-8.292A1 1 0 1018.291.293L9.999 8.585 1.707.293A1 1 0 10.293 1.707L8.585 10 .293 18.291z"/></g></symbol><symbol id="logo" viewBox="0 0 28 28"><g id="Vector"><path d="M0 27.8701V21.633H0.676259L3.51154 26.8782L6.33178 21.633H7.01806V27.8657H6.31676V23.0536L3.74697 27.8701H3.27109L0.706315 23.0536V27.8701H0Z" fill="currentColor"/><path d="M18.2848 28C17.7805 28 17.3264 27.9278 16.9223 27.7834C16.5215 27.6362 16.1892 27.4283 15.9254 27.1597C15.6649 26.8912 15.4946 26.5721 15.4145 26.2025L16.1659 26.0942C16.2861 26.4985 16.5399 26.8161 16.9273 27.0471C17.3147 27.2752 17.7772 27.3893 18.3149 27.3893C18.6689 27.3893 18.9861 27.3416 19.2666 27.2464C19.5472 27.1482 19.7676 27.0096 19.9279 26.8305C20.0882 26.6515 20.1683 26.4393 20.1683 26.1938C20.1683 26.0321 20.1349 25.895 20.0681 25.7824C20.0013 25.6669 19.9128 25.5716 19.8026 25.4965C19.6924 25.4214 19.5722 25.3593 19.442 25.3103C19.3117 25.2583 19.1848 25.2164 19.0613 25.1846L17.2329 24.7125C17.0124 24.6577 16.8087 24.5884 16.6217 24.5046C16.4347 24.418 16.2711 24.3155 16.1308 24.1971C15.9939 24.0758 15.887 23.9343 15.8102 23.7726C15.7334 23.6109 15.695 23.4261 15.695 23.2182C15.695 22.8659 15.8019 22.5613 16.0156 22.3043C16.2293 22.0473 16.5215 21.8495 16.8922 21.7109C17.2629 21.5723 17.6854 21.5045 18.1596 21.5074C18.6405 21.5074 19.0696 21.581 19.447 21.7283C19.8277 21.8755 20.1416 22.0863 20.3887 22.3606C20.6359 22.6321 20.7995 22.954 20.8796 23.3265L20.1082 23.4478C20.0581 23.1764 19.9429 22.941 19.7626 22.7418C19.5822 22.5425 19.3518 22.3895 19.0713 22.2827C18.7941 22.1729 18.4885 22.1166 18.1546 22.1137C17.8306 22.1137 17.5418 22.1614 17.288 22.2567C17.0375 22.3491 16.8388 22.4761 16.6918 22.6378C16.5449 22.7995 16.4714 22.9843 16.4714 23.1922C16.4714 23.403 16.5382 23.5719 16.6718 23.699C16.8087 23.8261 16.9757 23.9257 17.1727 23.9979C17.3731 24.0701 17.5668 24.1292 17.7538 24.1754L19.1665 24.5349C19.3134 24.5696 19.4854 24.6201 19.6824 24.6865C19.8828 24.7501 20.0765 24.8425 20.2635 24.9637C20.4538 25.0821 20.6108 25.2381 20.7344 25.4315C20.8579 25.625 20.9197 25.8704 20.9197 26.1679C20.9197 26.4566 20.8529 26.715 20.7193 26.9432C20.5891 27.1713 20.4038 27.3633 20.1633 27.5192C19.9262 27.6751 19.6473 27.7935 19.3267 27.8744C19.0095 27.9581 18.6622 28 18.2848 28Z" fill="currentColor"/><path fill-rule="evenodd" clip-rule="evenodd" d="M11.0087 21.633L8.52407 27.8701H9.29049L9.89298 26.3584H13.0974L13.7037 27.8701H14.4701L11.9855 21.633H11.0087ZM12.8576 25.7607L11.49 22.3514L10.1312 25.7607H9.63113V26.3584H9.89298L10.1312 25.7607H12.8576Z" fill="currentColor"/><path d="M9.63113 25.7607V26.3584H9.89298L10.1312 25.7607H9.63113Z" fill="currentColor"/><path fill-rule="evenodd" clip-rule="evenodd" d="M24.5386 21.633L22.0539 27.8701H22.8204L23.4229 26.3584H26.6272L27.2336 27.8701H28L25.5154 21.633H24.5386ZM26.3875 25.7607L25.0199 22.3514L23.6611 25.7607H23.161V26.3584H23.4229L23.6611 25.7607H26.3875Z" fill="currentColor"/><path d="M23.161 25.7607V26.3584H23.4229L23.6611 25.7607H23.161Z" fill="currentColor"/><path d="M5.81254 5.47597C5.29087 5.85346 4.98512 6.6529 5.56148 7.60874C6.13783 8.56458 14.372 15.0165 14.6739 15.1957C14.9758 15.375 15.2779 15.4048 16.0461 14.7775C16.8148 14.1502 23.2362 9.24971 23.4019 9.10231C23.6656 8.86779 23.7313 8.29579 23.4019 8.02685C23.4019 8.02685 15.6225 13.941 15.3677 14.1801C15.1132 14.4191 14.7169 14.0308 14.7913 13.5231C14.866 13.0152 14.921 12.9554 15.9091 12.1788C16.8972 11.4021 22.4993 7.08887 22.7535 6.89821C23.0414 6.68214 23.0483 6.30052 22.5768 5.96305C21.9214 5.49384 14.8379 0.376276 14.601 0.19713C14.3634 0.0178359 14.0345 -0.145063 13.5406 0.213377C13.0466 0.571818 6.77091 4.78227 5.81254 5.47597Z" fill="currentColor"/><path d="M14.6739 15.8252C14.4757 15.7075 10.8629 12.8896 8.23872 10.6955V15.2702C8.23669 18.6096 17.4981 20.3938 20.5663 16.2887V11.9163C18.6815 13.3631 16.4767 15.0556 16.0461 15.407C15.2779 16.0342 14.9758 16.0044 14.6739 15.8252Z" fill="currentColor"/><path d="M18.593 10.8091C18.593 10.8091 19.97 11.5124 20.068 14.3426L19.4009 14.1558L18.8671 15.3076C18.6413 12.2085 17.4116 11.7591 17.4116 11.7591L18.593 10.8091Z" fill="#98B8E6"/></g></symbol><symbol id="ok" viewBox="0 0 9 16"><path d="M4.5 2.42035C5.41587 2.42035 6.1607 3.18736 6.1607 4.1305C6.1607 5.0708 5.41587 5.83781 4.5 5.83781C3.58413 5.83781 2.8393 5.0708 2.8393 4.1305C2.8393 3.18736 3.58413 2.42035 4.5 2.42035ZM4.5 8.25816C6.71243 8.25816 8.51106 6.40597 8.51106 4.1305C8.51106 1.85219 6.71243 0 4.5 0C2.28757 0 0.491701 1.85219 0.491701 4.1305C0.491701 6.40597 2.28757 8.25816 4.5 8.25816ZM6.12208 11.6273C6.93863 11.4342 7.72485 11.1018 8.45037 10.6331C8.99934 10.278 9.16486 9.53083 8.82003 8.96551C8.47244 8.39735 7.74967 8.22691 7.19795 8.58485C5.55656 9.6473 3.44344 9.6473 1.79929 8.58485C1.25033 8.22691 0.524805 8.39735 0.179975 8.96551C-0.164855 9.53083 0.000663014 10.278 0.549632 10.6331C1.27515 11.1018 2.06136 11.4342 2.87792 11.6273L0.63515 13.934C0.177216 14.4056 0.177216 15.1726 0.63515 15.6442C0.866875 15.88 1.16481 15.9993 1.4655 15.9993C1.76619 15.9993 2.06688 15.88 2.29861 15.6442L4.5 13.3772L6.70415 15.6442C7.16208 16.1186 7.90416 16.1186 8.36485 15.6442C8.82278 15.1726 8.82278 14.4056 8.36485 13.934L6.12208 11.6273Z" fill="currentColor"/></symbol><symbol id="pin" viewBox="0 0 18 24"><g fill="none"><path fill-rule="evenodd" clip-rule="evenodd" d="M4.67653 1.12413C7.40052 -0.399271 10.7488 -0.372644 13.4472 1.19387C16.1191 2.7923 17.743 5.64501 17.7279 8.71373C17.6657 11.7623 15.9244 14.628 13.7478 16.8433C12.4915 18.1277 11.0861 19.2634 9.56036 20.2272C9.40322 20.3147 9.2311 20.3732 9.05248 20.4C8.88057 20.393 8.71316 20.3441 8.56533 20.2577C6.23598 18.8095 4.19242 16.9608 2.53298 14.8008C1.14441 12.9976 0.355519 10.8192 0.273439 8.5613C0.271636 5.48669 1.95253 2.64752 4.67653 1.12413ZM6.25061 9.83374C6.70882 10.921 7.79038 11.6302 8.99029 11.6302C9.77638 11.6357 10.532 11.3326 11.0888 10.7886C11.6457 10.2445 11.9574 9.50477 11.9546 8.73406C11.9588 7.55764 11.2393 6.49478 10.1319 6.04173C9.02454 5.58868 7.74782 5.83482 6.89787 6.66522C6.04792 7.49561 5.7924 8.74647 6.25061 9.83374Z" fill="#316DC2"/><path d="M15.2346 22.8C15.2346 23.4627 12.4436 24 9.00076 24C5.55793 24 2.76696 23.4627 2.76696 22.8C2.76696 22.1373 5.55793 21.6 9.00076 21.6C12.4436 21.6 15.2346 22.1373 15.2346 22.8Z" fill="#316DC2"/></g></symbol><symbol id="reddit" viewBox="0 0 14 15"><path d="M8.36171 0C7.91277 0 7.49149 0.244007 7.22128 0.59589C6.95106 0.947774 6.80213 1.37671 6.69362 1.82877C6.52128 2.55565 6.46808 3.36216 6.45532 4.08904C5.19361 4.17894 4.05105 4.57962 3.10211 5.19863C2.717 4.85188 2.25317 4.65925 1.80849 4.66438C1.3021 4.66952 0.821252 4.90325 0.463803 5.38356C-0.219178 6.30051 -0.140455 7.80051 0.651038 8.69178C0.602102 8.96661 0.565931 9.24914 0.565931 9.53425C0.565931 12.5548 3.44679 15 7 15C10.5532 15 13.4341 12.5522 13.4341 9.53425C13.4341 9.24914 13.3979 8.96661 13.349 8.69178C14.1405 7.80051 14.2192 6.30051 13.5362 5.38356C13.1788 4.90325 12.6979 4.66952 12.1915 4.66438C11.7468 4.65925 11.283 4.85188 10.8979 5.19863C9.9532 4.58219 8.81703 4.18151 7.5617 4.08904C7.57873 3.41866 7.62341 2.7226 7.74894 2.19863C7.82766 1.86986 7.92128 1.63099 8.02128 1.5C8.12128 1.36901 8.19362 1.31507 8.36171 1.31507C8.72554 1.31507 8.77235 1.44092 8.9915 1.74658C9.10214 1.90068 9.2298 2.09332 9.43405 2.28082C9.63831 2.46832 9.94044 2.63014 10.2681 2.63014V1.31507C10.1766 1.31507 10.1596 1.3125 10.0979 1.25342C10.0362 1.19435 9.95108 1.05822 9.82554 0.883562C9.57448 0.531678 9.08724 0 8.36171 0ZM11.9021 0.123288C11.0553 0.123288 10.3702 0.950343 10.3702 1.9726C10.3702 2.99486 11.0553 3.82192 11.9021 3.82192C12.749 3.82192 13.4341 2.99486 13.4341 1.9726C13.4341 0.950343 12.749 0.123288 11.9021 0.123288ZM11.9021 0.780822C12.4468 0.780822 12.8894 1.31507 12.8894 1.9726C12.8894 2.63014 12.4468 3.16438 11.9021 3.16438C11.3575 3.16438 10.9149 2.63014 10.9149 1.9726C10.9149 1.31507 11.3575 0.780822 11.9021 0.780822ZM7 5.11644C10.0149 5.11644 12.566 7.14298 12.566 9.53425C12.566 11.9281 10.0149 13.9521 7 13.9521C3.98509 13.9521 1.43402 11.9281 1.43402 9.53425C1.43402 7.14298 3.98509 5.11644 7 5.11644ZM1.82551 5.71233C1.97658 5.7149 2.13402 5.75599 2.28509 5.83562C1.73828 6.33647 1.30423 6.91182 1.00849 7.56164C0.80423 7.05308 0.85955 6.41866 1.11061 6.08219C1.29359 5.83562 1.54679 5.70976 1.82551 5.71233ZM12.1745 5.71233C12.4532 5.70976 12.7064 5.83562 12.8894 6.08219C13.1405 6.41866 13.1958 7.05308 12.9915 7.56164C12.6958 6.91182 12.2617 6.33647 11.7149 5.83562C11.866 5.75599 12.0234 5.7149 12.1745 5.71233ZM4.82127 7.35616C4.27658 7.35616 3.83403 7.89041 3.83403 8.54795C3.83403 9.20548 4.27658 9.73973 4.82127 9.73973C5.36595 9.73973 5.80851 9.20548 5.80851 8.54795C5.80851 7.89041 5.36595 7.35616 4.82127 7.35616ZM9.17873 7.35616C8.63405 7.35616 8.19149 7.89041 8.19149 8.54795C8.19149 9.20548 8.63405 9.73973 9.17873 9.73973C9.72342 9.73973 10.166 9.20548 10.166 8.54795C10.166 7.89041 9.72342 7.35616 9.17873 7.35616ZM4.29361 11.4041C4.64042 12.2697 5.71276 13.1096 7 13.1096C8.28724 13.1096 9.37661 12.2697 9.72342 11.4041C9.09363 11.8947 8.10001 12.226 7 12.226C5.9 12.226 4.9234 11.8947 4.29361 11.4041Z" fill="currentColor"/></symbol><symbol id="star" viewBox="0 0 18 22"><path d="M9 0L12.0138 5.47476L18 5.5L15.0275 11L18 16.5L12.0138 16.5252L9 22L5.98623 16.5252L0 16.5L2.97246 11L0 5.5L5.98623 5.47476L9 0Z" fill="currentColor"/></symbol><symbol id="vk" viewBox="0 0 14 8"><path d="M13.9258 7.22488C13.9088 7.18829 13.893 7.15794 13.8783 7.13362C13.6354 6.69547 13.1712 6.15768 12.4861 5.52008L12.4716 5.50548L12.4643 5.49832L12.457 5.49098H12.4497C12.1387 5.19409 11.9418 4.99446 11.8593 4.89225C11.7084 4.69756 11.6746 4.50049 11.7571 4.30081C11.8154 4.14995 12.0342 3.83134 12.4131 3.34456C12.6125 3.08658 12.7703 2.87982 12.8869 2.72405C13.7276 1.60458 14.0921 0.889223 13.9803 0.5777L13.9369 0.504902C13.9077 0.461074 13.8324 0.42098 13.711 0.384414C13.5894 0.347925 13.434 0.341891 13.2444 0.366208L11.1452 0.380732C11.1111 0.368663 11.0626 0.369788 10.9993 0.384414C10.9361 0.39904 10.9045 0.406379 10.9045 0.406379L10.868 0.424662L10.839 0.446627C10.8147 0.461151 10.788 0.486696 10.7588 0.52321C10.7297 0.559597 10.7055 0.602299 10.6861 0.650959C10.4575 1.23987 10.1977 1.78741 9.90602 2.29354C9.7262 2.59535 9.56107 2.85691 9.41026 3.07837C9.25966 3.29976 9.1333 3.46287 9.03133 3.56743C8.92921 3.67209 8.83705 3.75593 8.75428 3.81927C8.67163 3.88264 8.60855 3.90941 8.56486 3.89961C8.52108 3.88982 8.47985 3.8801 8.44081 3.87039C8.37282 3.82656 8.31813 3.76696 8.2769 3.69152C8.23549 3.61609 8.20761 3.52115 8.19303 3.40677C8.17853 3.29232 8.16995 3.19387 8.1675 3.1111C8.16523 3.02843 8.16628 2.9115 8.17121 2.76064C8.17626 2.6097 8.17853 2.50757 8.17853 2.45402C8.17853 2.26905 8.18213 2.0683 8.18936 1.85171C8.19671 1.63513 8.20266 1.46353 8.20764 1.33711C8.21259 1.21056 8.21489 1.07668 8.21489 0.935531C8.21489 0.794383 8.20631 0.683689 8.18936 0.603347C8.17261 0.523107 8.1469 0.44522 8.11302 0.369711C8.07894 0.294279 8.02905 0.235928 7.96359 0.194504C7.898 0.153131 7.81646 0.120299 7.71941 0.0959046C7.46183 0.0375276 7.13384 0.00594826 6.73528 0.00103876C5.83147 -0.00867795 5.25072 0.0497757 4.99317 0.176323C4.89112 0.229791 4.79878 0.302845 4.71621 0.395256C4.62872 0.50237 4.61651 0.560824 4.67968 0.570438C4.97129 0.614189 5.17773 0.718848 5.29923 0.884314L5.34302 0.971994C5.37707 1.03526 5.41108 1.14725 5.44511 1.30783C5.47909 1.46842 5.50103 1.64605 5.51068 1.84064C5.53493 2.19599 5.53493 2.50018 5.51068 2.75322C5.48635 3.00637 5.46337 3.20344 5.44144 3.34459C5.41951 3.48573 5.38672 3.60011 5.34302 3.68769C5.29923 3.77529 5.2701 3.82884 5.2555 3.84827C5.24092 3.8677 5.22877 3.87995 5.21912 3.88476C5.15595 3.909 5.09026 3.92135 5.02227 3.92135C4.95418 3.92135 4.87162 3.88724 4.77445 3.81907C4.6773 3.7509 4.57648 3.65726 4.47198 3.538C4.36749 3.41871 4.24964 3.25202 4.11838 3.0379C3.98723 2.82377 3.85115 2.5707 3.71023 2.27869L3.59363 2.06691C3.52074 1.93068 3.42117 1.7323 3.29481 1.47197C3.16839 1.21154 3.05664 0.959618 2.95949 0.716265C2.92066 0.614061 2.86232 0.536251 2.78458 0.482707L2.7481 0.460742C2.72385 0.441308 2.68491 0.420673 2.6315 0.398682C2.57801 0.376717 2.5222 0.360966 2.46384 0.351275L0.466599 0.365799C0.262507 0.365799 0.124028 0.412107 0.0511125 0.504595L0.0219309 0.548345C0.00735285 0.572714 0 0.611632 0 0.665202C0 0.718746 0.014578 0.784462 0.0437596 0.862272C0.33532 1.54858 0.652386 2.21047 0.994957 2.84804C1.33753 3.48561 1.63522 3.99918 1.88784 4.38831C2.14052 4.77772 2.39807 5.14525 2.6605 5.4907C2.92293 5.83628 3.09665 6.05775 3.18164 6.15504C3.26673 6.25252 3.33357 6.32539 3.38216 6.37405L3.56442 6.54923C3.68104 6.66607 3.8523 6.80598 4.07828 6.969C4.3043 7.13211 4.55453 7.29269 4.82908 7.451C5.10369 7.60905 5.42316 7.73802 5.78766 7.83777C6.15211 7.93762 6.50683 7.97769 6.85188 7.95836H7.69016C7.86017 7.94366 7.98897 7.89012 8.07651 7.7977L8.10552 7.76111C8.12502 7.73207 8.14328 7.68693 8.16013 7.6262C8.17718 7.56537 8.18566 7.49835 8.18566 7.42545C8.18068 7.21621 8.19658 7.02763 8.23294 6.85973C8.26927 6.69189 8.31068 6.56534 8.35699 6.48012C8.40328 6.39497 8.45552 6.32312 8.51365 6.26487C8.57191 6.20649 8.61342 6.17113 8.63778 6.15895C8.66198 6.14671 8.68131 6.1384 8.69589 6.13341C8.81251 6.09449 8.94976 6.13218 9.10785 6.24666C9.26581 6.36104 9.41396 6.50226 9.55254 6.6701C9.69105 6.8381 9.85746 7.02658 10.0518 7.23582C10.2463 7.44514 10.4163 7.60074 10.562 7.70309L10.7078 7.7907C10.8051 7.84915 10.9314 7.9027 11.087 7.95136C11.2422 7.99999 11.3782 8.01216 11.495 7.98784L13.361 7.95869C13.5456 7.95869 13.6892 7.92809 13.7911 7.86736C13.8931 7.80653 13.9538 7.73951 13.9733 7.66661C13.9928 7.59363 13.9939 7.51083 13.977 7.41827C13.9597 7.32593 13.9427 7.26137 13.9258 7.22488Z" fill="currentColor"/></symbol></svg>