<svg width="18" height="24" viewBox="0 0 18 24" fill="none" xmlns="http://www.w3.org/2000/svg"><path fill-rule="evenodd" clip-rule="evenodd" d="M4.67653 1.12413C7.40052 -0.399271 10.7488 -0.372644 13.4472 1.19387C16.1191 2.7923 17.743 5.64501 17.7279 8.71373C17.6657 11.7623 15.9244 14.628 13.7478 16.8433C12.4915 18.1277 11.0861 19.2634 9.56036 20.2272C9.40322 20.3147 9.2311 20.3732 9.05248 20.4C8.88057 20.393 8.71316 20.3441 8.56533 20.2577C6.23598 18.8095 4.19242 16.9608 2.53298 14.8008C1.14441 12.9976 0.355519 10.8192 0.273439 8.5613C0.271636 5.48669 1.95253 2.64752 4.67653 1.12413ZM6.25061 9.83374C6.70882 10.921 7.79038 11.6302 8.99029 11.6302C9.77638 11.6357 10.532 11.3326 11.0888 10.7886C11.6457 10.2445 11.9574 9.50477 11.9546 8.73406C11.9588 7.55764 11.2393 6.49478 10.1319 6.04173C9.02454 5.58868 7.74782 5.83482 6.89787 6.66522C6.04792 7.49561 5.7924 8.74647 6.25061 9.83374Z" fill="#316DC2"/><path d="M15.2346 22.8C15.2346 23.4627 12.4436 24 9.00076 24C5.55793 24 2.76696 23.4627 2.76696 22.8C2.76696 22.1373 5.55793 21.6 9.00076 21.6C12.4436 21.6 15.2346 22.1373 15.2346 22.8Z" fill="#316DC2"/></svg>